<mxfile host="app.diagrams.net" modified="2023-07-01T14:28:11.660Z" agent="Mozilla/5.0 (X11; Ubuntu; Linux x86_64; rv:109.0) Gecko/20100101 Firefox/110.0" etag="Q1Y168MnX9hGFYV8HO1h" version="21.5.2" type="device">
  <diagram name="第 1 页" id="L7efiHlIBuk-ChQDylOk">
    <mxGraphModel dx="1195" dy="662" grid="1" gridSize="10" guides="1" tooltips="1" connect="1" arrows="1" fold="1" page="1" pageScale="1" pageWidth="827" pageHeight="1169" math="0" shadow="0">
      <root>
        <mxCell id="0" />
        <mxCell id="1" parent="0" />
        <mxCell id="7D4-CdUa76EdzAnQ6E8K-21" style="edgeStyle=orthogonalEdgeStyle;orthogonalLoop=1;jettySize=auto;html=1;exitX=0.5;exitY=0;exitDx=0;exitDy=0;exitPerimeter=0;entryX=0;entryY=0.5;entryDx=0;entryDy=0;curved=1;" edge="1" parent="1" source="7D4-CdUa76EdzAnQ6E8K-3" target="7D4-CdUa76EdzAnQ6E8K-7">
          <mxGeometry relative="1" as="geometry" />
        </mxCell>
        <mxCell id="7D4-CdUa76EdzAnQ6E8K-22" style="edgeStyle=orthogonalEdgeStyle;orthogonalLoop=1;jettySize=auto;html=1;exitX=1;exitY=0.3333333333333333;exitDx=0;exitDy=0;exitPerimeter=0;entryX=0;entryY=0.5;entryDx=0;entryDy=0;curved=1;" edge="1" parent="1" source="7D4-CdUa76EdzAnQ6E8K-3" target="7D4-CdUa76EdzAnQ6E8K-8">
          <mxGeometry relative="1" as="geometry">
            <Array as="points">
              <mxPoint x="101" y="260" />
            </Array>
          </mxGeometry>
        </mxCell>
        <mxCell id="7D4-CdUa76EdzAnQ6E8K-23" style="edgeStyle=orthogonalEdgeStyle;orthogonalLoop=1;jettySize=auto;html=1;exitX=1;exitY=0.3333333333333333;exitDx=0;exitDy=0;exitPerimeter=0;entryX=0;entryY=0.5;entryDx=0;entryDy=0;curved=1;" edge="1" parent="1" source="7D4-CdUa76EdzAnQ6E8K-3" target="7D4-CdUa76EdzAnQ6E8K-10">
          <mxGeometry relative="1" as="geometry">
            <Array as="points">
              <mxPoint x="101" y="370" />
            </Array>
          </mxGeometry>
        </mxCell>
        <mxCell id="7D4-CdUa76EdzAnQ6E8K-24" style="edgeStyle=orthogonalEdgeStyle;orthogonalLoop=1;jettySize=auto;html=1;exitX=1;exitY=0.3333333333333333;exitDx=0;exitDy=0;exitPerimeter=0;entryX=0;entryY=0.5;entryDx=0;entryDy=0;curved=1;" edge="1" parent="1" source="7D4-CdUa76EdzAnQ6E8K-3" target="7D4-CdUa76EdzAnQ6E8K-11">
          <mxGeometry relative="1" as="geometry">
            <Array as="points">
              <mxPoint x="100" y="385" />
              <mxPoint x="100" y="495" />
            </Array>
          </mxGeometry>
        </mxCell>
        <mxCell id="7D4-CdUa76EdzAnQ6E8K-25" style="edgeStyle=orthogonalEdgeStyle;orthogonalLoop=1;jettySize=auto;html=1;exitX=1;exitY=1;exitDx=0;exitDy=0;exitPerimeter=0;entryX=0;entryY=0.5;entryDx=0;entryDy=0;curved=1;" edge="1" parent="1" source="7D4-CdUa76EdzAnQ6E8K-3" target="7D4-CdUa76EdzAnQ6E8K-9">
          <mxGeometry relative="1" as="geometry" />
        </mxCell>
        <mxCell id="7D4-CdUa76EdzAnQ6E8K-26" style="edgeStyle=orthogonalEdgeStyle;orthogonalLoop=1;jettySize=auto;html=1;exitX=1;exitY=1;exitDx=0;exitDy=0;exitPerimeter=0;entryX=0;entryY=0.5;entryDx=0;entryDy=0;curved=1;" edge="1" parent="1" source="7D4-CdUa76EdzAnQ6E8K-3" target="7D4-CdUa76EdzAnQ6E8K-12">
          <mxGeometry relative="1" as="geometry" />
        </mxCell>
        <mxCell id="7D4-CdUa76EdzAnQ6E8K-3" value="用户" style="shape=umlActor;verticalLabelPosition=bottom;verticalAlign=top;html=1;outlineConnect=0;" vertex="1" parent="1">
          <mxGeometry x="40" y="365" width="30" height="60" as="geometry" />
        </mxCell>
        <mxCell id="7D4-CdUa76EdzAnQ6E8K-7" value="注册" style="ellipse;whiteSpace=wrap;html=1;" vertex="1" parent="1">
          <mxGeometry x="265" y="160" width="115" height="50" as="geometry" />
        </mxCell>
        <mxCell id="7D4-CdUa76EdzAnQ6E8K-8" value="登陆" style="ellipse;whiteSpace=wrap;html=1;" vertex="1" parent="1">
          <mxGeometry x="270" y="230" width="110" height="60" as="geometry" />
        </mxCell>
        <mxCell id="7D4-CdUa76EdzAnQ6E8K-9" value="教师信息修改" style="ellipse;whiteSpace=wrap;html=1;" vertex="1" parent="1">
          <mxGeometry x="260" y="680" width="130" height="50" as="geometry" />
        </mxCell>
        <mxCell id="7D4-CdUa76EdzAnQ6E8K-28" style="edgeStyle=orthogonalEdgeStyle;orthogonalLoop=1;jettySize=auto;html=1;exitX=1;exitY=0.5;exitDx=0;exitDy=0;entryX=0;entryY=0.5;entryDx=0;entryDy=0;curved=1;" edge="1" parent="1" source="7D4-CdUa76EdzAnQ6E8K-10" target="7D4-CdUa76EdzAnQ6E8K-16">
          <mxGeometry relative="1" as="geometry" />
        </mxCell>
        <mxCell id="7D4-CdUa76EdzAnQ6E8K-29" style="edgeStyle=orthogonalEdgeStyle;orthogonalLoop=1;jettySize=auto;html=1;exitX=1;exitY=0.5;exitDx=0;exitDy=0;entryX=0;entryY=0.5;entryDx=0;entryDy=0;curved=1;" edge="1" parent="1" source="7D4-CdUa76EdzAnQ6E8K-10" target="7D4-CdUa76EdzAnQ6E8K-17">
          <mxGeometry relative="1" as="geometry" />
        </mxCell>
        <mxCell id="7D4-CdUa76EdzAnQ6E8K-30" style="edgeStyle=orthogonalEdgeStyle;orthogonalLoop=1;jettySize=auto;html=1;entryX=-0.025;entryY=0.381;entryDx=0;entryDy=0;entryPerimeter=0;exitX=1;exitY=1;exitDx=0;exitDy=0;curved=1;" edge="1" parent="1" source="7D4-CdUa76EdzAnQ6E8K-10" target="7D4-CdUa76EdzAnQ6E8K-18">
          <mxGeometry relative="1" as="geometry">
            <mxPoint x="370" y="380" as="sourcePoint" />
          </mxGeometry>
        </mxCell>
        <mxCell id="7D4-CdUa76EdzAnQ6E8K-31" style="edgeStyle=orthogonalEdgeStyle;orthogonalLoop=1;jettySize=auto;html=1;exitX=0.5;exitY=1;exitDx=0;exitDy=0;entryX=0;entryY=0.5;entryDx=0;entryDy=0;curved=1;" edge="1" parent="1" source="7D4-CdUa76EdzAnQ6E8K-10" target="7D4-CdUa76EdzAnQ6E8K-19">
          <mxGeometry relative="1" as="geometry">
            <Array as="points">
              <mxPoint x="316" y="450" />
              <mxPoint x="465" y="450" />
            </Array>
          </mxGeometry>
        </mxCell>
        <mxCell id="7D4-CdUa76EdzAnQ6E8K-10" value="发表论文信息模块" style="ellipse;whiteSpace=wrap;html=1;" vertex="1" parent="1">
          <mxGeometry x="262.5" y="340" width="107.5" height="80" as="geometry" />
        </mxCell>
        <mxCell id="7D4-CdUa76EdzAnQ6E8K-11" value="教授课程信息模块" style="ellipse;whiteSpace=wrap;html=1;" vertex="1" parent="1">
          <mxGeometry x="256.25" y="460" width="120" height="80" as="geometry" />
        </mxCell>
        <mxCell id="7D4-CdUa76EdzAnQ6E8K-12" value="承担项目信息模块" style="ellipse;whiteSpace=wrap;html=1;" vertex="1" parent="1">
          <mxGeometry x="260" y="560" width="120" height="80" as="geometry" />
        </mxCell>
        <mxCell id="7D4-CdUa76EdzAnQ6E8K-16" value="论文信息新增" style="ellipse;whiteSpace=wrap;html=1;" vertex="1" parent="1">
          <mxGeometry x="460" y="290" width="100" height="40" as="geometry" />
        </mxCell>
        <mxCell id="7D4-CdUa76EdzAnQ6E8K-17" value="论文信息删除" style="ellipse;whiteSpace=wrap;html=1;" vertex="1" parent="1">
          <mxGeometry x="462.5" y="357.5" width="100" height="45" as="geometry" />
        </mxCell>
        <mxCell id="7D4-CdUa76EdzAnQ6E8K-18" value="论文信息修改" style="ellipse;whiteSpace=wrap;html=1;" vertex="1" parent="1">
          <mxGeometry x="460" y="410" width="100" height="45" as="geometry" />
        </mxCell>
        <mxCell id="7D4-CdUa76EdzAnQ6E8K-19" value="论文信息检索" style="ellipse;whiteSpace=wrap;html=1;" vertex="1" parent="1">
          <mxGeometry x="465" y="460" width="95" height="45" as="geometry" />
        </mxCell>
      </root>
    </mxGraphModel>
  </diagram>
</mxfile>
